<?xml version="1.0" encoding="UTF-8"?>
<svg width="124px" height="123px" viewBox="0 0 124 123" version="1.1" xmlns="http://www.w3.org/2000/svg" xmlns:xlink="http://www.w3.org/1999/xlink">
    <!-- Generator: Sketch 61.2 (89653) - https://sketch.com -->
    <title>avatar</title>
    <desc>Created with Sketch.</desc>
    <defs>
        <circle id="path-1" cx="61.5" cy="61.5" r="61.5"></circle>
    </defs>
    <g id="Ask" stroke="none" stroke-width="1" fill="none" fill-rule="evenodd">
        <g id="Desktop-" transform="translate(-290.000000, -804.000000)">
            <g id="#1" transform="translate(220.000000, 766.000000)">
                <g id="Molecules-/-Team-/-Avatar_circle" transform="translate(70.500000, 38.000000)">
                    <g id="Avatar">
                        <mask id="mask-2" fill="white">
                            <use xlink:href="#path-1"></use>
                        </mask>
                        <use id="Mask" fill="#F2F5F7" xlink:href="#path-1"></use>
                        <g id="Atoms-/-Avatar" mask="url(#mask-2)" fill="#C2D1D9">
                            <g transform="translate(22.363636, 27.155844)" id="Combined-Shape">
                                <path d="M18.3701299,20.9285641 C13.2681352,19.2516228 9.58441558,14.448858 9.58441558,8.78571429 L14.0989434,9.44533119 C12.7601918,7.42475301 11.9805195,5.00147957 11.9805195,2.3961039 L18.3701299,3.3296888 L18.3701299,0 L53.9063689,5.36396061 C57.8128655,5.95362047 60.7012987,9.31076319 60.7012987,13.2615118 L60.7012987,27.3571448 C63.4571811,28.0664599 65.4935065,30.5681526 65.4935065,33.5454545 C65.4935065,36.5227565 63.4571811,39.0244492 60.7012987,39.7337643 L60.7012987,42.3311688 L60.6679613,42.3311688 C60.2635078,49.5795174 56.2118853,55.8542085 50.3181818,59.3501542 L50.3181818,63.0974026 L57.5064935,63.0974026 C61.7076817,63.0974026 65.1512719,66.3410651 65.4695073,70.4606333 C73.1667607,71.6065049 79.0714286,78.243568 79.0714286,86.2597403 L79.0714286,107.824675 L0,107.824675 L0,86.2597403 C0,77.9656131 6.3212473,71.1478923 14.4089056,70.3614142 C14.7742946,66.289103 18.1962347,63.0974026 22.3636364,63.0974026 L28.7532468,63.0974026 L28.7532468,59.3501542 C22.8595433,55.8542085 18.8079207,49.5795174 18.4034673,42.3311688 L18.3701299,42.3311688 L18.3701299,39.9350649 C14.8412455,39.9350649 11.9805195,37.0743389 11.9805195,33.5454545 C11.9805195,30.0165702 14.8412455,27.1558442 18.3701299,27.1558442 L18.3701299,20.9285641 Z"></path>
                            </g>
                        </g>
                    </g>
                </g>
            </g>
        </g>
    </g>
</svg>